<svg width="50" height="25" viewBox="0 0 50 25" fill="none" xmlns="http://www.w3.org/2000/svg">
<path fill-rule="evenodd" clip-rule="evenodd" d="M50 24.4328L25 0L0 24.4328H5.61763L25 5.49017L44.3824 24.4328H50Z" fill="white"/>
<rect x="41.6211" y="12.9985" width="3.89871" height="8.7728" fill="white"/>
<path fill-rule="evenodd" clip-rule="evenodd" d="M50 24.4328L25 0L0 24.4328H5.61763L25 5.49017L44.3824 24.4328H50Z" fill="white"/>
<rect x="41.6211" y="12.9985" width="3.89871" height="8.7728" fill="white"/>
<path fill-rule="evenodd" clip-rule="evenodd" d="M24.8668 15.9373C26.8163 15.9373 28.3967 14.3569 28.3967 12.4074C28.3967 10.4578 26.8163 8.87744 24.8668 8.87744C22.9173 8.87744 21.3369 10.4578 21.3369 12.4074C21.3369 14.3569 22.9173 15.9373 24.8668 15.9373ZM23.6065 11.6975L23.7327 11.5555L23.8117 11.4609L23.8748 11.382L23.9379 11.3031L24.0011 11.2242L24.0642 11.1375L24.0926 11.0941L24.1068 11.0724L24.1194 11.0507L24.136 11.0192L24.151 10.9876L24.1628 10.9561L24.1731 10.9245L24.181 10.8969L24.1873 10.8693L24.1936 10.8417L24.1984 10.8141L24.2031 10.7746L24.2062 10.7352L24.2457 10.7746L24.2654 10.7959L24.2836 10.8172L24.3049 10.8433L24.323 10.8693L24.3412 10.8969L24.3578 10.9245L24.3728 10.9561L24.3862 10.9876L24.398 11.0192L24.4083 11.0507L24.4193 11.0941L24.4256 11.1375L24.4304 11.1809L24.4319 11.2242L24.4304 11.2637L24.4256 11.3031L24.4177 11.3425L24.4083 11.382L24.3988 11.4135L24.3862 11.4451L24.3546 11.5082L24.3294 11.5476L24.3009 11.5871L24.2694 11.6344L24.222 11.6975L24.1841 11.7448L24.1431 11.7921L24.08 11.871L24.0342 11.931L23.9884 11.9972L23.9379 12.0761L23.9143 12.1234L23.8937 12.1707L23.8748 12.2259L23.859 12.2812L23.93 12.2496L24.0011 12.2149L24.08 12.1707L24.1589 12.1202L24.2425 12.0674L24.2844 12.0394L24.3262 12.0098L24.3806 11.9712L24.4351 11.931L24.4864 11.8915L24.5345 11.8521L24.5693 11.8205L24.6008 11.789L24.6419 11.7448L24.6687 11.7133L24.6924 11.6817L24.716 11.6502L24.7366 11.6186L24.761 11.5752L24.7823 11.5318L24.8186 11.4451L24.8376 11.3899L24.8518 11.3347L24.8691 11.2242L24.8762 11.1414L24.8818 11.0586L24.8841 10.9758L24.8849 10.893V10.8377L24.8833 10.7825L24.8802 10.7273L24.877 10.6721L24.8723 10.6248L24.866 10.5775L24.8502 10.4828L24.8218 10.3645L24.7877 10.2462L24.7508 10.1436L24.7113 10.0411L24.585 9.69406L24.8297 9.86759L24.952 9.95435L25.0743 10.0474L25.1848 10.1358L25.2953 10.2304L25.5162 10.426L25.7767 10.6958L25.9069 10.8338L26.0371 10.9845L26.187 11.1769L26.262 11.2794L26.337 11.3883L26.3962 11.4806L26.4553 11.5792L26.5145 11.6778L26.5706 11.7827L26.6132 11.8749L26.6526 11.9735L26.6921 12.0721L26.7252 12.1707L26.7631 12.293L26.7947 12.4152L26.8184 12.5375L26.8389 12.6598L26.8515 12.7544L26.8578 12.8175L26.8626 12.8806L26.8657 12.9319L26.8673 12.9831L26.8689 13.0857L26.8673 13.1922L26.861 13.2986L26.8515 13.4051L26.8389 13.5116L26.8199 13.6181L26.7947 13.7246L26.7789 13.7778L26.76 13.831L26.741 13.8843L26.7189 13.9375L26.6937 14.0006L26.6653 14.0637L26.629 14.1347L26.5863 14.2057L26.5264 14.2846L26.4632 14.3634L26.3922 14.4423L26.3117 14.5212L26.1791 14.6316L26.0371 14.742L25.9345 14.813L25.8832 14.8422L25.8319 14.8682L25.753 14.9014L25.6741 14.9313L25.5162 14.9787L25.6583 14.8288L25.794 14.6789L25.9187 14.5212L25.9747 14.4423L26.0028 14.4029L26.0276 14.3634L26.0592 14.3102L26.0876 14.257L26.116 14.2037L26.1413 14.1505L26.1649 14.0972L26.1855 14.044L26.2202 13.9375L26.2541 13.8044L26.2679 13.7379L26.2786 13.6713L26.2877 13.6048L26.2928 13.5382L26.2948 13.4717L26.2953 13.4051L26.2928 13.3415L26.2874 13.2779L26.2817 13.2143L26.2732 13.1507L26.2612 13.0872L26.247 13.0236L26.2312 12.96L26.2123 12.8964L26.1953 12.8451L26.1768 12.7938L26.1381 12.6913L26.0884 12.5888L26.0308 12.4862L25.9345 12.3285L25.8256 12.1707L25.6425 11.9341L25.4531 11.6975V11.7921L25.4468 11.8868L25.4373 11.9578L25.4215 12.0288L25.4058 12.0997L25.3837 12.1707L25.3545 12.2496L25.319 12.3285L25.2834 12.4074L25.2416 12.4862L25.1966 12.5572L25.1453 12.6282L25.0301 12.7702L24.9323 12.8806L24.8218 13.0068L24.6876 13.1409L24.5472 13.275L24.4209 13.3933L24.3443 13.4761L24.2725 13.5621L24.226 13.6299L24.1826 13.7009L24.1392 13.7719L24.1175 13.8153L24.1005 13.8586L24.085 13.9217L24.0737 14.0006L24.0692 14.0874L24.0699 14.1308L24.0721 14.1741L24.0752 14.2136L24.08 14.253L24.0879 14.2925L24.0973 14.3319L24.1076 14.3713L24.1194 14.4108L24.1463 14.4896L24.1786 14.5646L24.2157 14.6395L24.2623 14.7144L24.3136 14.7894L24.353 14.8367L24.3956 14.884L24.4967 14.9787L24.585 15.0497L24.6797 15.1206H24.585L24.4903 15.1143L24.4114 15.1049L24.3325 15.0859L24.2378 15.0528L24.1431 15.0165L24.0168 14.9629L23.859 14.884L23.7327 14.813L23.6065 14.7357L23.5434 14.6908L23.4802 14.6395L23.4171 14.5882L23.354 14.5322L23.3027 14.4778L23.2514 14.4187L23.2001 14.3595L23.1519 14.294L23.0935 14.2057L23.0383 14.111L22.9988 14.0401L22.9657 13.9691L22.942 13.9099L22.9199 13.8508L22.8805 13.7324L22.8568 13.6615L22.8363 13.5905L22.8244 13.5431L22.8142 13.4958L22.8055 13.4485L22.799 13.4012L22.7937 13.342L22.7895 13.2829L22.7873 13.2237L22.7858 13.1646V13.0462L22.7889 12.9871L22.7937 12.9279L22.8008 12.8767L22.8094 12.8254L22.8228 12.7741L22.8394 12.7229L22.8663 12.6637L22.8962 12.6045L22.9641 12.4862L23.0304 12.3837L23.1014 12.2812L23.1646 12.1944L23.2308 12.1076L23.2829 12.0445L23.3382 11.9814L23.4455 11.871L23.5276 11.7842L23.6065 11.6975Z" fill="white"/>
<path fill-rule="evenodd" clip-rule="evenodd" d="M24.8668 24.4461C26.8163 24.4461 28.3967 22.8657 28.3967 20.9161C28.3967 18.9666 26.8163 17.3862 24.8668 17.3862C22.9173 17.3862 21.3369 18.9666 21.3369 20.9161C21.3369 22.8657 22.9173 24.4461 24.8668 24.4461ZM24.6824 20.4999L24.8405 20.4604L25.0512 19.5121L24.801 19.275L24.6758 19.1565L24.6133 19.0972L24.5836 19.0675L24.5639 19.0379L24.554 19.0149L24.5454 18.9918L24.5408 18.9688L24.5402 18.9457L24.5408 18.926L24.5441 18.9062L24.5501 18.8864L24.5573 18.8667L24.5632 18.8535L24.5705 18.8403L24.5804 18.8272L24.5902 18.8166L24.6034 18.8041L24.6166 18.7942L24.6429 18.7771L24.6627 18.7666L24.6824 18.76L24.7022 18.7554L24.7219 18.7534L24.745 18.756L24.768 18.7613L24.7845 18.7679L24.801 18.7758L24.8183 18.786L24.8355 18.8008L24.8569 18.8206L24.8998 18.8667L24.9854 18.9589L25.1566 19.1433L25.229 18.8996L25.2488 18.8272L25.2751 18.735L25.2896 18.6955L25.3015 18.6691L25.3173 18.6428L25.3278 18.6296L25.341 18.6164L25.3542 18.6059L25.3673 18.5967L25.3805 18.5901L25.3937 18.5835L25.4069 18.5782L25.4233 18.5743L25.4398 18.5716H25.4595L25.4793 18.573L25.4991 18.5769L25.5161 18.5835L25.5254 18.5875L25.5386 18.5954L25.5504 18.6033L25.5649 18.6164L25.57 18.6217L25.5781 18.6296L25.586 18.6428L25.5952 18.6628L25.6018 18.6847L25.6044 18.7086V18.735L25.6018 18.7679L25.5992 18.8008L25.5899 18.8535L25.5781 18.9128L25.5517 19.0247L25.4991 19.2487L25.881 19.1433L25.9732 19.1169L26.0061 19.1143L26.0391 19.1169L26.0588 19.1235L26.0786 19.1327L26.0983 19.1499L26.1181 19.1696L26.1313 19.1894L26.1418 19.2091L26.1477 19.2322L26.151 19.2552V19.282L26.1484 19.3087L26.1412 19.3314L26.1339 19.354L26.1181 19.3804L26.0918 19.4067L26.0654 19.4199L26.0127 19.4462L25.3542 19.6306L25.1566 20.5394L25.2488 20.6448L26.1708 20.3814L26.2498 20.0521L26.2893 19.894L26.3157 19.7887L26.342 19.6965L26.3684 19.6701L26.3947 19.6438L26.4342 19.6306L26.4869 19.6174L26.5659 19.6306L26.6186 19.657L26.6581 19.7228L26.6713 19.7755L26.6581 19.8545L26.6466 19.9089L26.6351 19.9632L26.612 20.0719L26.5659 20.2892L26.9347 20.1706L27.0401 20.1575L27.1191 20.1706L27.1718 20.2102L27.1982 20.2628L27.2113 20.3287L27.1982 20.3814L27.1586 20.4341L27.0664 20.4868L26.6581 20.6185L26.8294 20.7963L26.915 20.8852L26.9578 20.9296L27.0006 20.9873L27.0138 21.0268V21.0795L27.0006 21.1322L26.9742 21.1717L26.9347 21.2112L26.882 21.2375H26.8425L26.7898 21.2243L26.7437 21.2046L26.7108 21.1848L26.6697 21.156L26.6417 21.1272L26.5857 21.0696L26.4737 20.9543L26.2498 20.7238L25.3015 20.9741L25.3147 21.119L25.9732 21.7644L26.4474 21.6327L26.5264 21.6129L26.5659 21.603L26.6054 21.5958L26.645 21.5931L26.6845 21.5958L26.7174 21.6063L26.7503 21.6248L26.7701 21.6458L26.7898 21.6722L26.803 21.6985L26.8096 21.7249L26.8122 21.7542L26.8096 21.7841L26.8004 21.8171L26.7872 21.8434L26.7635 21.8671L26.7372 21.8829L26.6697 21.9093L26.2498 22.041L26.5791 22.3703L26.5962 22.39L26.6107 22.4098L26.6226 22.4361L26.6291 22.4625L26.6298 22.4888L26.6278 22.5151L26.6186 22.5415L26.6054 22.5678L26.5923 22.5876L26.5765 22.6047L26.5528 22.6205L26.5264 22.6337L26.4935 22.6429L26.4606 22.6469L26.4276 22.6429L26.3947 22.6337L26.37 22.623L26.3453 22.6097L26.3206 22.5884L26.2959 22.5645L26.1971 22.469L25.9996 22.2781L25.881 22.7341L25.8705 22.7629L25.8534 22.7917L25.8415 22.8049L25.8257 22.8181L25.802 22.8313L25.7756 22.8418L25.7559 22.8444H25.7361H25.7098L25.6834 22.8418L25.667 22.8378L25.6505 22.8313L25.6341 22.8233L25.6176 22.8141L25.6077 22.8069L25.5978 22.7983L25.5886 22.7884L25.5807 22.7786L25.5721 22.7654L25.5649 22.7522L25.5596 22.7391L25.5557 22.7259L25.5531 22.7127L25.5517 22.6995L25.5531 22.6732L25.5583 22.6403L25.5649 22.6073L25.7361 22.0146L25.0776 21.3429H24.9327L24.6693 22.2649L24.9129 22.5151L25.0348 22.6403L25.0957 22.7028L25.1261 22.7341L25.1414 22.7498L25.1553 22.7667L25.1698 22.7884L25.1829 22.8115L25.1922 22.8345L25.1987 22.8576L25.2014 22.8955L25.1961 22.9333L25.1856 22.9613L25.1671 22.9893L25.1434 23.0104L25.1171 23.0288L25.0907 23.042L25.0644 23.0499L25.0381 23.0538L24.9985 23.0512L24.9722 23.042L24.9459 23.0262L24.9179 23.0058L24.8899 22.9827L24.8471 22.9366L24.7615 22.8444L24.5902 22.66L24.5244 22.8971L24.4914 23.0156L24.475 23.0749L24.4527 23.1342L24.4427 23.1539L24.4309 23.1737L24.419 23.1869L24.4058 23.2L24.3913 23.2132L24.3748 23.2228L24.3569 23.2303L24.3353 23.2353L24.3136 23.2382L24.2873 23.2396L24.2609 23.2382L24.2412 23.2323L24.2214 23.2251L24.2017 23.2126L24.1819 23.1987L24.1652 23.1816L24.1485 23.1605L24.1375 23.1342L24.1305 23.1078L24.1292 23.0815L24.1305 23.0552L24.1375 23.0247L24.1457 22.9942L24.1622 22.9333L24.1951 22.8115L24.2609 22.5678L23.8526 22.6732L23.7736 22.689L23.7341 22.6916L23.7143 22.6903L23.6946 22.6877L23.6781 22.6837L23.6617 22.6771L23.6452 22.6692L23.6287 22.66L23.6169 22.6501L23.605 22.6403L23.5879 22.6205L23.5774 22.6008L23.5708 22.581L23.5668 22.5612L23.5642 22.5415V22.5217L23.5655 22.502L23.5708 22.4822L23.5787 22.4625L23.5892 22.4427L23.6024 22.4243L23.6156 22.4098L23.6287 22.3966L23.6485 22.3834L23.6682 22.3729L23.6946 22.3637L23.7209 22.3571L24.34 22.2122L24.6166 21.277L24.5112 21.1717L23.5892 21.4351L23.4443 21.9751L23.418 22.0607L23.4114 22.0788L23.4035 22.0969L23.3943 22.1144L23.3837 22.1319L23.3712 22.1463L23.3587 22.1582L23.3422 22.1694L23.3258 22.1793L23.3093 22.1859L23.2929 22.1911L23.2764 22.1951L23.2599 22.1977L23.2402 22.199L23.2204 22.1977L23.2007 22.1957L23.1809 22.1911L23.1644 22.1865L23.1479 22.1793L23.1328 22.1701L23.1177 22.1595L23.1038 22.1437L23.09 22.12L23.0813 22.0937L23.0768 22.0541L23.0755 22.0146L23.078 21.9825L23.0826 21.9504L23.0895 21.9183L23.0986 21.8862L23.1348 21.7578L23.2072 21.5009L22.7528 21.6195L22.7166 21.6261L22.6804 21.63L22.654 21.63L22.6277 21.6248L22.6079 21.6169L22.5908 21.6063L22.5684 21.5866L22.5586 21.5767L22.5487 21.5642L22.5421 21.5536L22.5355 21.5405L22.5289 21.5207L22.5242 21.5009L22.5223 21.4812L22.5236 21.4614L22.5256 21.4483L22.5289 21.4351L22.5381 21.4087L22.5487 21.389L22.5553 21.3791L22.5632 21.3692L22.575 21.3587L22.5882 21.3487L22.6079 21.3389L22.6277 21.331L22.6433 21.3256L22.659 21.3215L22.6903 21.3133L22.7528 21.2968L22.878 21.2639L23.1282 21.198L22.9504 21.0202L22.8549 20.9313L22.8072 20.8868L22.7833 20.8646L22.7621 20.8424L22.7502 20.8226L22.741 20.8029L22.7357 20.7765L22.7331 20.7502L22.7379 20.7173L22.7462 20.6843L22.7726 20.6448L22.7989 20.6185L22.8187 20.6053L22.8384 20.5934L22.8582 20.5855L22.878 20.5795L22.9043 20.5771L22.9306 20.579L22.957 20.5855L22.9833 20.5974L22.9998 20.6078L23.0163 20.6234L23.0492 20.6547L23.115 20.7173L23.2468 20.8424L23.5102 21.1058L24.4322 20.8556L24.4585 20.7107L23.7868 20.0653L23.2072 20.2102L23.1816 20.2167L23.1559 20.2207L23.1223 20.2233L23.0887 20.2207L23.0624 20.2154L23.036 20.2062L23.0163 20.1957L22.9965 20.1838L22.9833 20.1706L22.9728 20.1575L22.9636 20.1377L22.9544 20.118L22.9465 20.085L22.9438 20.0521V20.0323L22.9465 20.0126L22.9504 19.9928L22.957 19.9731L22.9688 19.9533L22.982 19.9336L22.9952 19.9204L23.0097 19.9085L23.0294 19.894L23.0492 19.8848L23.0689 19.8776L23.0887 19.8703L23.1142 19.8619L23.1397 19.8562L23.1908 19.8447L23.2929 19.8216L23.497 19.7755L23.3192 19.6109L23.2303 19.5285L23.1872 19.4874L23.1709 19.4668L23.1559 19.4462L23.1414 19.4232L23.1295 19.4001L23.1216 19.3771L23.1164 19.354L23.115 19.3376V19.3211L23.1164 19.3046L23.119 19.2882L23.1229 19.275L23.1282 19.2618L23.1348 19.2487L23.1427 19.2355L23.1525 19.2223L23.1636 19.2091L23.1747 19.1973L23.1875 19.1862L23.2011 19.1775L23.2163 19.1696L23.2315 19.1637L23.2468 19.1591L23.2665 19.1551L23.2863 19.1538L23.306 19.1545L23.3258 19.1591L23.3422 19.1663L23.3587 19.1762L23.3916 19.1986L23.4139 19.2174L23.4361 19.2388L23.4805 19.2816L23.5695 19.3672L23.7473 19.5384L23.8 19.3277L23.8263 19.2223L23.8395 19.1696L23.8553 19.1169L23.879 19.0511L23.8922 19.0247L23.9106 19.001L23.9317 18.9852L23.958 18.9721L23.9909 18.9655L24.0239 18.9642L24.0568 18.9655L24.0897 18.9721L24.1226 18.9852L24.1424 18.9997L24.1556 19.0149L24.1674 19.0313L24.1753 19.0478L24.1819 19.0643L24.1852 19.084L24.1885 19.1038V19.1235V19.1433L24.1844 19.1861L24.1737 19.2289L24.1523 19.3145L24.1095 19.4857L24.0239 19.8282L24.6824 20.4999Z" fill="white"/>
<path fill-rule="evenodd" clip-rule="evenodd" d="M33.3756 24.4461C35.3251 24.4461 36.9055 22.8657 36.9055 20.9161C36.9055 18.9666 35.3251 17.3862 33.3756 17.3862C31.4261 17.3862 29.8457 18.9666 29.8457 20.9161C29.8457 22.8657 31.4261 24.4461 33.3756 24.4461ZM33.7084 18.6849L33.3692 18.4136L33.1997 18.5323L33.0131 18.6849L32.8436 18.8375L32.6401 19.0071L32.2501 19.3971L32.0466 19.6345L31.8771 19.8549L31.6736 20.1431L31.504 20.4823L31.4447 20.6434L31.3955 20.8044L31.3514 21.0418L31.3243 21.2623L31.3209 21.4997L31.3514 21.6947L31.3853 21.8897L31.4447 22.0677L31.5074 22.2457L31.5888 22.3899L31.6736 22.534L31.8686 22.7714L32.0819 22.9884L32.3179 23.1444L32.4705 23.2207L32.6231 23.2937L32.8097 23.3394L32.9962 23.3784L33.1997 23.3903L33.4031 23.3954L33.5557 23.3818L33.7084 23.3649L33.9797 23.297L34.251 23.1783L34.412 23.0851L34.5663 22.9918L34.7173 22.8562L34.858 22.7205L34.9886 22.551L35.1123 22.3814L35.209 22.1779L35.3023 21.9744L35.3497 21.8218L35.3836 21.6692L35.404 21.4403L35.3972 21.2114L35.3701 21.0249L35.3328 20.8384L35.2683 20.6518L35.1971 20.4653L35.1157 20.3042L35.031 20.1431L34.9462 19.9905L34.8614 19.8413L34.7427 19.6938L34.624 19.5497L34.3697 19.2614L33.9797 18.9223L33.7084 18.6849ZM31.8941 20.6687L31.8432 20.7026L31.8008 20.7501L31.7585 20.8044L31.7245 20.8722L31.694 20.957L31.6703 21.0418L31.6499 21.1265L31.6364 21.1944L31.6262 21.2961L31.6228 21.3978L31.6398 21.5165L31.6737 21.6522L31.7076 21.7709L31.7415 21.8726L31.7754 21.9574L31.8093 22.0422L31.8602 22.127L31.9111 22.2118L31.9619 22.2965L32.0298 22.3983L32.0976 22.4831L32.1824 22.5678L32.3011 22.6696L32.4198 22.7544L32.5554 22.8391L32.6911 22.9239L32.8267 22.9917L32.9624 23.0426L33.0471 23.063L33.1319 23.0731H33.2337L33.3354 23.0596L33.4032 23.0392L33.4371 23.0172L33.4711 22.9917L33.5219 22.9409L33.5728 22.8561L33.5898 22.7713V22.6696L33.5728 22.5678L33.5389 22.4831L33.488 22.4152L33.4202 22.3644L33.3354 22.3135L33.2506 22.2796L33.1828 22.2626L33.0811 22.2457L32.9793 22.2253L32.8945 22.1948L32.7419 22.127L32.6063 22.0422L32.4537 21.9065L32.335 21.7878L32.2332 21.6522L32.1654 21.5505L32.0976 21.4148L32.0467 21.2622L32.0213 21.1774L31.9992 21.0926L31.9789 20.9909L31.9704 20.9231L31.9653 20.8552L31.9619 20.7959L31.9585 20.7365L31.945 20.6857L31.928 20.6687H31.8941Z" fill="white"/>
<path fill-rule="evenodd" clip-rule="evenodd" d="M16.359 24.4461C18.3085 24.4461 19.8889 22.8657 19.8889 20.9161C19.8889 18.9666 18.3085 17.3862 16.359 17.3862C14.4095 17.3862 12.8291 18.9666 12.8291 20.9161C12.8291 22.8657 14.4095 24.4461 16.359 24.4461ZM17.2072 18.2818L14.7255 21.4034H16.2334L15.558 23.524L18.071 20.5473L16.5946 20.5209L17.2072 18.2818Z" fill="white"/>
</svg>
